<svg xmlns="http://www.w3.org/2000/svg" viewBox="0 0 30 30"><defs><style>.cls-1{fill:#fff;}.cls-2{fill:none;}</style></defs><title>bbgl</title><g id="图层_2" data-name="图层 2"><g id="图层_1-2" data-name="图层 1"><path class="cls-1" d="M11.45,22.26H8.07a.5.5,0,0,1-.5-.5V11.65a.5.5,0,0,1,.5-.5h3.38a.5.5,0,0,1,.5.5V21.76A.5.5,0,0,1,11.45,22.26Zm-2.88-1H11V12.15H8.57Z"/><path class="cls-1" d="M16.71,22.26H13.32a.5.5,0,0,1-.5-.5V5.86a.5.5,0,0,1,.5-.5h3.38a.5.5,0,0,1,.5.5v15.9A.5.5,0,0,1,16.71,22.26Zm-2.88-1h2.38V6.36H13.82Z"/><path class="cls-1" d="M21.93,22.26H18.55a.5.5,0,0,1-.5-.5V8.94a.5.5,0,0,1,.5-.5h3.38a.5.5,0,0,1,.5.5V21.76A.5.5,0,0,1,21.93,22.26Zm-2.88-1h2.38V9.44H19Z"/><path class="cls-1" d="M22.51,24.64h-15a.5.5,0,1,1,0-1h15a.5.5,0,0,1,0,1Z"/><rect class="cls-2" width="30" height="30"/></g></g></svg>