<svg xmlns="http://www.w3.org/2000/svg" viewBox="0 0 30 30"><defs><style>.cls-1{fill:#fff;}.cls-2{fill:none;}</style></defs><title>czrj</title><g id="图层_2" data-name="图层 2"><g id="图层_1-2" data-name="图层 1"><path class="cls-1" d="M8.39,10.31a.5.5,0,0,1-.5-.5V7.18a.5.5,0,0,1,.5-.5H18a.5.5,0,0,1,0,1H8.89V9.81A.5.5,0,0,1,8.39,10.31Z"/><path class="cls-1" d="M22.45,23.87H8.39a.5.5,0,0,1-.5-.5V19.18a.5.5,0,0,1,1,0v3.69H21.95V12a.5.5,0,0,1,1,0V23.37A.5.5,0,0,1,22.45,23.87Z"/><path class="cls-1" d="M9.82,10.46H7a.5.5,0,0,1,0-1H9.82a.5.5,0,0,1,0,1Z"/><path class="cls-1" d="M9.82,13.4H7a.5.5,0,1,1,0-1H9.82a.5.5,0,0,1,0,1Z"/><path class="cls-1" d="M9.82,16.35H7a.5.5,0,0,1,0-1H9.82a.5.5,0,0,1,0,1Z"/><path class="cls-1" d="M9.82,19.29H7a.5.5,0,1,1,0-1H9.82a.5.5,0,0,1,0,1Z"/><path class="cls-1" d="M15.72,16.6a.37.37,0,0,1-.26-.11l-2.26-2.26a.38.38,0,0,1,0-.53l7.45-7.45a.37.37,0,0,1,.53,0L23.43,8.5a.38.38,0,0,1,0,.53L16,16.49A.37.37,0,0,1,15.72,16.6ZM14,14l1.73,1.73,6.92-6.92L20.91,7Z"/><path class="cls-1" d="M12.07,18.06a.37.37,0,0,1-.35-.5l1.38-3.72a.37.37,0,1,1,.7.26L12.72,17l2.86-1.14a.37.37,0,0,1,.28.7L12.21,18Z"/><path class="cls-1" d="M20.9,11.41a.37.37,0,0,1-.27-.11L18.38,9a.38.38,0,0,1,.53-.53l2.26,2.26a.38.38,0,0,1-.27.64Z"/><rect class="cls-2" width="30" height="30"/></g></g></svg>