<svg xmlns="http://www.w3.org/2000/svg" viewBox="0 0 30 30"><defs><style>.cls-1{fill:#fff;}.cls-2{fill:none;}</style></defs><title>dlll</title><g id="图层_2" data-name="图层 2"><g id="图层_1-2" data-name="图层 1"><path class="cls-1" d="M17.05,12.15a.5.5,0,0,1-.5-.5v-6H11.81a.5.5,0,0,1,0-1h5.24a.5.5,0,0,1,.5.5v6.48A.5.5,0,0,1,17.05,12.15Z"/><path class="cls-1" d="M17.05,15.51a2.18,2.18,0,1,1,2.18-2.18A2.18,2.18,0,0,1,17.05,15.51Zm0-3.36a1.18,1.18,0,1,0,1.18,1.18A1.18,1.18,0,0,0,17.05,12.15Z"/><path class="cls-1" d="M10.13,7.34a2.18,2.18,0,1,1,2.18-2.18A2.18,2.18,0,0,1,10.13,7.34Zm0-3.36a1.18,1.18,0,1,0,1.18,1.18A1.18,1.18,0,0,0,10.13,4Z"/><path class="cls-1" d="M19,27a.5.5,0,0,1-.5-.5V23.76L16.7,22a.5.5,0,0,1-.15-.35V15.41a.5.5,0,0,1,1,0v6l1.79,1.79a.5.5,0,0,1,.15.35v3A.5.5,0,0,1,19,27Z"/><path class="cls-1" d="M17.05,20.9A.5.5,0,0,1,16.7,20l4.35-4.35V5.16a.5.5,0,0,1,1,0V15.9a.5.5,0,0,1-.15.35l-4.5,4.5A.5.5,0,0,1,17.05,20.9Z"/><path class="cls-1" d="M12.74,17.54a.5.5,0,0,1-.35-.15L9.78,14.79a.5.5,0,0,1-.15-.35V7.14a.5.5,0,1,1,1,0v7.09l2.46,2.46a.5.5,0,0,1-.35.85Z"/><path class="cls-1" d="M15,23.82a.5.5,0,0,1-.35-.15L12.38,21.4a.5.5,0,0,1-.15-.35V9a.5.5,0,1,1,1,0V20.84L15.36,23a.5.5,0,0,1-.35.85Z"/><rect class="cls-2" width="30" height="30"/></g></g></svg>