<svg xmlns="http://www.w3.org/2000/svg" viewBox="0 0 30 30"><defs><style>.cls-1{fill:#fff;}.cls-2{fill:none;}</style></defs><title>jbsz</title><g id="图层_2" data-name="图层 2"><g id="图层_1-2" data-name="图层 1"><path class="cls-1" d="M22,23H8V15.78a7,7,0,1,1,14,0ZM9,22H21V15.78a6,6,0,1,0-12,0Z"/><path class="cls-1" d="M15,7.15a.5.5,0,0,1-.5-.5v-2a.5.5,0,0,1,1,0v2A.5.5,0,0,1,15,7.15Z"/><path class="cls-1" d="M21.28,8.85A.5.5,0,0,1,20.92,8l1.41-1.41a.5.5,0,0,1,.71.71L21.63,8.71A.5.5,0,0,1,21.28,8.85Z"/><path class="cls-1" d="M8.69,8.85a.5.5,0,0,1-.35-.15L6.92,7.29a.5.5,0,0,1,.71-.71L9,8a.5.5,0,0,1-.35.85Z"/><path class="cls-1" d="M12.48,23a.5.5,0,0,1-.5-.5V16.13a.5.5,0,0,1,1,0v6.34A.5.5,0,0,1,12.48,23Z"/><path class="cls-1" d="M24,25.85H6a.5.5,0,0,1,0-1H24a.5.5,0,0,1,0,1Z"/><rect class="cls-2" width="30" height="30"/></g></g></svg>