<svg xmlns="http://www.w3.org/2000/svg" viewBox="0 0 30 30"><defs><style>.cls-1{fill:#fff;}.cls-2{fill:none;}</style></defs><title>jngl</title><g id="图层_2" data-name="图层 2"><g id="图层_1-2" data-name="图层 1"><path class="cls-1" d="M22.22,24.59H7.78a.5.5,0,0,1-.5-.5V5.91a.5.5,0,0,1,.5-.5H22.22a.5.5,0,0,1,.5.5V24.09A.5.5,0,0,1,22.22,24.59Zm-13.94-1H21.72V6.41H8.28Z"/><path class="cls-1" d="M18.41,12.09H11.59a1.59,1.59,0,0,1,0-3.19h6.81a1.59,1.59,0,0,1,0,3.19ZM11.59,9.91a.59.59,0,0,0,0,1.19h6.81a.59.59,0,0,0,0-1.19Z"/><polygon class="cls-1" points="13.59 14.72 12.66 17.78 14.72 17.78 14.22 20.66 17.34 16.59 15 16.59 15.72 14.72 13.59 14.72"/><rect class="cls-2" width="30" height="30"/></g></g></svg>