<svg xmlns="http://www.w3.org/2000/svg" viewBox="0 0 30 30"><defs><style>.cls-1{fill:#fff;}.cls-2{fill:none;}</style></defs><title>lssj</title><g id="图层_2" data-name="图层 2"><g id="图层_1-2" data-name="图层 1"><path class="cls-1" d="M21.75,24.25H8.25a2.5,2.5,0,0,1-2.5-2.5V8.25a2.5,2.5,0,0,1,2.5-2.5h13.5a2.5,2.5,0,0,1,2.5,2.5v13.5A2.5,2.5,0,0,1,21.75,24.25ZM8.25,6.75a1.5,1.5,0,0,0-1.5,1.5v13.5a1.5,1.5,0,0,0,1.5,1.5h13.5a1.5,1.5,0,0,0,1.5-1.5V8.25a1.5,1.5,0,0,0-1.5-1.5Z"/><path class="cls-1" d="M15,21.33A6.33,6.33,0,1,1,21.33,15,6.34,6.34,0,0,1,15,21.33ZM15,9.67A5.33,5.33,0,1,0,20.33,15,5.33,5.33,0,0,0,15,9.67Z"/><path class="cls-1" d="M17.47,18a.5.5,0,0,1-.35-.15l-2.91-2.91V11.82a.5.5,0,0,1,1,0v2.7l2.61,2.61a.5.5,0,0,1-.35.85Z"/><rect class="cls-2" width="30" height="30"/></g></g></svg>