<svg xmlns="http://www.w3.org/2000/svg" viewBox="0 0 30 30"><defs><style>.cls-1{fill:#fff;}.cls-2{fill:none;}</style></defs><title>sjl</title><g id="图层_2" data-name="图层 2"><g id="图层_1-2" data-name="图层 1"><path class="cls-1" d="M9.06,22.28a.5.5,0,0,1-.5-.5V20H6.81a.5.5,0,0,1-.5-.5V8.22a.5.5,0,0,1,.5-.5H23.19a.5.5,0,0,1,.5.5V19.47a.5.5,0,0,1-.5.5h-10L9.31,22.21A.5.5,0,0,1,9.06,22.28ZM7.31,19H9.06a.5.5,0,0,1,.5.5v1.45L12.81,19a.5.5,0,0,1,.25-.07h9.62V8.72H7.31Z"/><path class="cls-1" d="M19.44,12.92H10.56a.5.5,0,0,1,0-1h8.88a.5.5,0,0,1,0,1Z"/><path class="cls-1" d="M19.44,15.91H10.56a.5.5,0,0,1,0-1h8.88a.5.5,0,0,1,0,1Z"/><rect class="cls-2" width="30" height="30"/></g></g></svg>