<svg xmlns="http://www.w3.org/2000/svg" viewBox="0 0 30 30"><defs><style>.cls-1{fill:#fff;}.cls-2{fill:none;}</style></defs><title>ywzsk</title><g id="图层_2" data-name="图层 2"><g id="图层_1-2" data-name="图层 1"><path class="cls-1" d="M22.21,7.33a.5.5,0,0,0-.5.5v15a1.5,1.5,0,0,1-1.5,1.5H9.79a1.5,1.5,0,0,1-1.5-1.5v-2a1.11,1.11,0,0,1,1.1-1.11H19.87V7.17a2.5,2.5,0,0,0-2.5-2.5H9.79a2.5,2.5,0,0,0-2.5,2.5v16h0a2.5,2.5,0,0,0,2.46,2.12H20.21a2.5,2.5,0,0,0,2.5-2.5v-15A.5.5,0,0,0,22.21,7.33ZM9.79,5.67h7.58a1.5,1.5,0,0,1,1.5,1.5V18.75H9.41a2.1,2.1,0,0,0-1.12.33V7.17A1.5,1.5,0,0,1,9.79,5.67Z"/><path class="cls-1" d="M9.85,21.52a.5.5,0,1,0,0,1h9.94a.5.5,0,0,0,0-1Z"/><rect class="cls-2" width="30" height="30"/></g></g></svg>