<svg xmlns="http://www.w3.org/2000/svg" viewBox="0 0 30 30"><defs><style>.cls-1{fill:#fff;}.cls-2{fill:none;}</style></defs><title>zldyll</title><g id="图层_2" data-name="图层 2"><g id="图层_1-2" data-name="图层 1"><path class="cls-1" d="M22.75,19.46H7.61a.5.5,0,0,1-.49-.4l-.9-4.42a.5.5,0,0,1,0-.29l3.69-9.1a.5.5,0,0,1,.46-.31h9.1a.5.5,0,0,1,.46.31l3.79,9.19a.5.5,0,0,1,0,.25L23.25,19A.5.5,0,0,1,22.75,19.46ZM8,18.46H22.31l.47-3.76L19.17,5.95H10.74L7.23,14.6Z"/><path class="cls-1" d="M14.87,12.71a.5.5,0,0,1-.5-.5V8.06a.5.5,0,1,1,1,0v4.14A.5.5,0,0,1,14.87,12.71Z"/><path class="cls-1" d="M12.3,16.58a.5.5,0,0,1-.47-.34L10.74,13a.5.5,0,0,1,.95-.32l1.08,3.23a.5.5,0,0,1-.32.63Z"/><path class="cls-1" d="M17.79,16.58h-.11a.5.5,0,0,1-.38-.6L18,12.74A.5.5,0,1,1,19,13l-.72,3.23A.5.5,0,0,1,17.79,16.58Z"/><path class="cls-1" d="M15,25.05a.5.5,0,0,1-.5-.5V19a.5.5,0,0,1,1,0v5.59A.5.5,0,0,1,15,25.05Z"/><rect class="cls-2" width="30" height="30"/></g></g></svg>